<?xml version="1.0" encoding="utf-8"?>
<svg xmlns="http://www.w3.org/2000/svg" viewBox="0 0 40 40" width="480" height="480">
  <path fill="#98ccfd" d="M19.999,38.251C17.896,35.874,7.5,23.628,7.5,14C7.5,7.107,13.107,1.5,20,1.5S32.5,7.107,32.5,14 C32.5,23.58,22.102,35.866,19.999,38.251z" />
  <path fill="#4788c7" d="M20,2c6.617,0,12,5.383,12,12c0,8.932-9.29,20.349-12.001,23.491C17.286,34.358,8,22.977,8,14 C8,7.383,13.383,2,20,2 M20,1C12.82,1,7,6.82,7,14c0,10.981,13,25,13,25s13-14.074,13-25C33,6.82,27.18,1,20,1L20,1z" />
  <g>
    <path fill="#fff" d="M20 8.5A5.5 5.5 0 1 0 20 19.5A5.5 5.5 0 1 0 20 8.5Z" />
    <path fill="#4788c7" d="M20,9c2.761,0,5,2.239,5,5s-2.239,5-5,5s-5-2.239-5-5S17.239,9,20,9 M20,8c-3.308,0-6,2.692-6,6 s2.692,6,6,6s6-2.692,6-6S23.308,8,20,8L20,8z" />
  </g>
</svg>