<?xml version="1.0" encoding="utf-8"?>
<svg xmlns="http://www.w3.org/2000/svg" viewBox="0 0 40 40" width="480" height="480">
  <path fill="#dff0fe" d="M12.911,25.5L9.845,7.83l28.522,3.852L34.9,24.395c-0.178,0.65-0.772,1.105-1.447,1.105H12.911z" />
  <path fill="#4788c7" d="M10.454,8.417l27.281,3.684l-3.317,12.162C34.3,24.697,33.903,25,33.453,25H13.331L10.454,8.417 M9.235,7.243L12.49,26h20.963c0.902,0,1.692-0.604,1.93-1.474L39,11.263L9.235,7.243L9.235,7.243z" />
  <path fill="#dff0fe" d="M3 1.5A1.5 1.5 0 1 0 3 4.5A1.5 1.5 0 1 0 3 1.5Z" />
  <path fill="#4788c7" d="M3,2c0.551,0,1,0.449,1,1S3.551,4,3,4S2,3.551,2,3S2.449,2,3,2 M3,1C1.895,1,1,1.895,1,3s0.895,2,2,2s2-0.895,2-2S4.105,1,3,1L3,1z" />
  <path fill="#98ccfd" d="M31.5 34.5A2 2 0 1 0 31.5 38.5A2 2 0 1 0 31.5 34.5Z" />
  <path fill="#4788c7" d="M31.5,35c0.827,0,1.5,0.673,1.5,1.5S32.327,38,31.5,38S30,37.327,30,36.5S30.673,35,31.5,35 M31.5,34c-1.381,0-2.5,1.119-2.5,2.5s1.119,2.5,2.5,2.5s2.5-1.119,2.5-2.5S32.881,34,31.5,34L31.5,34z" />
  <path fill="#98ccfd" d="M18.5 34.5A2 2 0 1 0 18.5 38.5A2 2 0 1 0 18.5 34.5Z" />
  <path fill="#4788c7" d="M18.5,35c0.827,0,1.5,0.673,1.5,1.5S19.327,38,18.5,38S17,37.327,17,36.5S17.673,35,18.5,35 M18.5,34c-1.381,0-2.5,1.119-2.5,2.5s1.119,2.5,2.5,2.5s2.5-1.119,2.5-2.5S19.881,34,18.5,34L18.5,34z" />
  <path fill="#bae0bd" stroke="#4788c7" stroke-linecap="round" d="M18.5 21.5L18.5 14.5M22.5 21.5L22.5 14.5M26.5 21.5L26.5 14.5M30.5 21.5L30.5 14.5" />
  <path fill="none" stroke="#4788c7" stroke-linecap="round" d="M3,1.5h2.119c2.093,0,3.882,1.505,4.241,3.567l4.498,25.866c0.359,2.062,2.148,3.567,4.241,3.567H35.5" />
</svg>